<svg xmlns="http://www.w3.org/2000/svg"><defs><symbol id="edit" fill="none" viewBox="0 0 24 24"><path stroke="currentColor" stroke-linecap="round" stroke-linejoin="round" stroke-width="2" d="m14.304 4.844 2.852 2.852M7 7H4a1 1 0 0 0-1 1v10a1 1 0 0 0 1 1h11a1 1 0 0 0 1-1v-4.5m2.409-9.91a2.017 2.017 0 0 1 0 2.853l-6.844 6.844L8 14l.713-3.565 6.844-6.844a2.015 2.015 0 0 1 2.852 0Z"/></symbol><symbol id="search" fill="none" viewBox="0 0 24 24"><path stroke="currentColor" stroke-linecap="round" stroke-width="2" d="m21 21-3.5-3.5M17 10a7 7 0 1 1-14 0 7 7 0 0 1 14 0Z"/></symbol><symbol id="plus" fill="none" viewBox="0 0 24 24"><path stroke="currentColor" stroke-linecap="round" stroke-linejoin="round" stroke-width="2" d="M5 12h14m-7 7V5"/></symbol></defs></svg>